<?xml version="1.0" encoding="utf-8"?>
<!-- Generator: Adobe Illustrator 19.0.0, SVG Export Plug-In . SVG Version: 6.00 Build 0)  -->
<svg version="1.1" id="Layer_1" xmlns="http://www.w3.org/2000/svg" xmlns:xlink="http://www.w3.org/1999/xlink" x="0px" y="0px"
	 viewBox="0 0 300 300" style="enable-background:new 0 0 300 300;" xml:space="preserve">
<style type="text/css">
	.st0{fill:#FFFFFF;}
	.st1{fill:#052864;}
	.st2{display:none;fill:#0BA047;}
	.st3{fill:#0BA047;}
	.st4{fill:none;stroke:#052864;stroke-width:4;stroke-miterlimit:10;}
</style>
<g id="NEWmust">
	<circle id="XMLID_97_" class="st0" cx="150" cy="150" r="147"/>
	<g id="misrUniFor">
		<path class="st1" d="M44,222.8l-10.6,2.3l-3.5-5.1l0.3-0.2l0.3,0.4c0.3,0.4,0.5,0.6,0.8,0.8c0.2,0.1,0.4,0.1,0.7,0.1
			c0.2,0,0.6-0.3,1.2-0.7l8.3-5.7c0.6-0.4,1-0.8,1.1-0.9c0.1-0.2,0.2-0.4,0.1-0.7c0-0.3-0.2-0.6-0.4-1l-0.3-0.4l0.3-0.2l4.5,6.5
			l-0.3,0.2l-0.3-0.4c-0.3-0.4-0.5-0.6-0.8-0.8c-0.2-0.1-0.4-0.1-0.7-0.1c-0.2,0-0.6,0.3-1.2,0.7l-9.3,6.4L49,221l0.2,0.2l-8,12.7
			l8.8-6.1c0.6-0.4,1-0.7,1.1-0.8c0.3-0.3,0.4-0.6,0.4-1c0-0.4-0.2-0.9-0.6-1.5l0.3-0.2l3,4.3l-0.3,0.2l-0.1-0.1
			c-0.2-0.3-0.4-0.5-0.7-0.7c-0.3-0.2-0.5-0.3-0.8-0.3c-0.2,0-0.5,0-0.9,0.2c-0.1,0-0.4,0.2-1,0.6l-7.9,5.5c-0.6,0.4-1,0.7-1.1,0.9
			c-0.1,0.2-0.2,0.4-0.1,0.7c0,0.3,0.2,0.6,0.4,1l0.3,0.4l-0.3,0.2l-3.5-5.1L44,222.8z"/>
		<path class="st1" d="M38.4,204l0.4-0.2l3.7,7.1l-0.4,0.2l-0.2-0.4c-0.2-0.4-0.4-0.7-0.7-0.8c-0.2-0.1-0.4-0.2-0.7-0.1
			c-0.2,0-0.6,0.2-1.3,0.5l-8.9,4.7c-0.7,0.4-1.1,0.6-1.2,0.8c-0.1,0.2-0.2,0.4-0.2,0.7c0,0.3,0.1,0.6,0.3,1l0.2,0.4l-0.4,0.2
			l-3.7-7.1l0.4-0.2l0.2,0.4c0.2,0.4,0.4,0.7,0.7,0.8c0.2,0.1,0.4,0.2,0.7,0.2c0.2,0,0.6-0.2,1.3-0.5l8.9-4.7
			c0.7-0.4,1.1-0.6,1.2-0.8c0.1-0.2,0.2-0.4,0.2-0.7c0-0.3-0.1-0.6-0.3-1L38.4,204z"/>
		<path class="st1" d="M20.1,199.7l4.6-2.1l0.2,0.4c-1.1,0.7-1.8,1.6-2.2,2.7c-0.4,1.1-0.4,2.1,0,3c0.3,0.7,0.7,1.2,1.3,1.4
			c0.5,0.3,1.1,0.3,1.6,0.1c0.3-0.1,0.6-0.3,0.7-0.6c0.2-0.3,0.4-0.8,0.6-1.4c0.1-0.4,0.2-1.3,0.3-2.8c0.1-2,0.4-3.4,0.9-4.3
			c0.5-0.9,1.2-1.5,2.1-1.9c1.2-0.5,2.4-0.5,3.6,0.1c1.2,0.6,2.1,1.5,2.7,3c0.2,0.4,0.3,0.9,0.4,1.3c0.1,0.4,0.1,1,0.1,1.7
			c0,0.4,0,0.7,0.1,0.9c0.1,0.2,0.2,0.3,0.4,0.5c0.2,0.1,0.5,0.2,0.8,0.2l0.2,0.4l-5.3,2.2l-0.2-0.4c1.4-0.9,2.3-2,2.7-3.2
			c0.4-1.2,0.4-2.3,0-3.3c-0.3-0.8-0.8-1.3-1.4-1.6c-0.6-0.3-1.2-0.3-1.8-0.1c-0.3,0.1-0.6,0.4-0.9,0.7c-0.2,0.3-0.4,0.7-0.5,1.2
			c-0.1,0.5-0.2,1.3-0.3,2.4c-0.1,1.5-0.2,2.7-0.4,3.4c-0.2,0.7-0.5,1.4-0.9,1.9c-0.4,0.5-1,0.9-1.6,1.2c-1.1,0.5-2.2,0.5-3.4,0
			c-1.1-0.5-2-1.4-2.5-2.6c-0.2-0.5-0.3-0.9-0.4-1.4c-0.1-0.4-0.1-0.8,0-1.4c0-0.6,0-0.9-0.1-1.1c-0.1-0.2-0.2-0.3-0.3-0.4
			c-0.2-0.1-0.5,0-0.9,0L20.1,199.7z"/>
		<path class="st1" d="M25.3,188.3l4.1-1.2c0.8-0.2,1.3-0.4,1.5-0.6c0.2-0.2,0.3-0.4,0.3-0.7c0.1-0.3,0-0.8-0.2-1.4l0.4-0.1l2.2,7.5
			l-0.4,0.1c-0.2-0.7-0.4-1.1-0.6-1.3c-0.2-0.2-0.4-0.3-0.6-0.4c-0.2,0-0.7,0.1-1.5,0.3l-9.5,2.7c-0.8,0.2-1.3,0.4-1.5,0.6
			c-0.2,0.2-0.3,0.4-0.3,0.7c-0.1,0.3,0,0.8,0.2,1.4l-0.4,0.1l-2-6.8c-0.5-1.8-0.8-3.1-0.8-4c0-0.9,0.3-1.7,0.8-2.4
			c0.5-0.7,1.2-1.2,2.1-1.4c1.1-0.3,2.1-0.2,3,0.4c0.6,0.4,1.1,1,1.6,1.8l3.9-4.9c0.5-0.6,0.8-1.1,0.9-1.3c0.1-0.4,0.2-0.7,0.1-1.1
			l0.4-0.1l1.3,4.6l-5.3,6.6L25.3,188.3z M18.2,190.4l6.4-1.9l-0.2-0.6c-0.3-1-0.6-1.7-0.9-2.2c-0.3-0.4-0.8-0.7-1.3-0.9
			c-0.6-0.1-1.2-0.1-2,0.1c-1.1,0.3-1.9,0.8-2.2,1.5c-0.4,0.7-0.4,1.6-0.1,2.8L18.2,190.4z"/>
		<path class="st1" d="M12.9,172.3l-0.8-7.8l0.4,0l0,0.4c0.1,0.6,0.2,1,0.3,1.2c0.1,0.2,0.3,0.3,0.6,0.4c0.2,0.1,0.8,0.1,1.6,0
			l7.4-0.8c1.4-0.1,2.2-0.3,2.7-0.6c0.4-0.3,0.7-0.6,1-1.1c0.2-0.5,0.3-1.1,0.2-1.8c-0.1-0.8-0.3-1.5-0.8-2c-0.4-0.5-1-0.9-1.7-1.1
			c-0.7-0.2-1.8-0.2-3.4-0.1l-6.2,0.6c-0.7,0.1-1.2,0.2-1.4,0.4c-0.3,0.2-0.5,0.4-0.5,0.6c-0.1,0.4-0.2,0.8-0.1,1.4l-0.4,0l-0.6-5.2
			l0.4,0l0,0.3c0,0.4,0.2,0.8,0.4,1c0.2,0.3,0.5,0.4,0.8,0.5c0.2,0.1,0.7,0.1,1.3,0L20,158c1.8-0.2,3.1-0.2,3.9-0.1
			c0.8,0.2,1.6,0.6,2.4,1.5c0.8,0.8,1.2,2,1.4,3.6c0.1,1.3,0.1,2.3-0.2,3.1c-0.4,1-0.9,1.8-1.6,2.3c-0.7,0.5-1.7,0.8-2.9,0.9
			l-7.4,0.8c-0.9,0.1-1.4,0.2-1.6,0.3c-0.2,0.1-0.4,0.3-0.5,0.6c-0.1,0.3-0.1,0.7,0,1.3L12.9,172.3z"/>
		<path class="st1" d="M11.3,149.1l9.6-7.3l-6.5-0.2c-0.9,0-1.5,0.1-1.9,0.3c-0.4,0.3-0.7,0.9-0.7,1.8l-0.4,0l0.1-5l0.4,0
			c0.1,0.6,0.2,1.1,0.3,1.3c0.1,0.2,0.3,0.4,0.6,0.5c0.3,0.1,0.8,0.2,1.5,0.2l12.7,0.3l0,0.4l-12.9,10l9.7,0.2
			c0.9,0,1.5-0.2,1.8-0.6c0.3-0.4,0.5-0.8,0.5-1.4l0-0.4l0.4,0l-0.1,5.4l-0.4,0c0-0.8-0.1-1.4-0.5-1.8c-0.3-0.3-0.9-0.5-1.7-0.5
			l-10.7-0.3l-0.4,0.3c-0.4,0.3-0.7,0.6-0.8,0.8c-0.1,0.2-0.2,0.6-0.2,1.1l-0.4,0L11.3,149.1z"/>
		<path class="st1" d="M27.6,130.6l0.4,0.1l-1,7.9l-0.4-0.1l0.1-0.5c0.1-0.4,0-0.8-0.1-1.1c-0.1-0.2-0.2-0.4-0.5-0.5
			c-0.2-0.1-0.6-0.2-1.4-0.3l-9.9-1.2c-0.8-0.1-1.3-0.1-1.5-0.1c-0.2,0.1-0.4,0.2-0.6,0.4c-0.2,0.2-0.3,0.6-0.3,1l-0.1,0.5l-0.4-0.1
			l1-7.9l0.4,0.1l-0.1,0.5c-0.1,0.4,0,0.8,0.1,1.1c0.1,0.2,0.2,0.4,0.5,0.5c0.2,0.1,0.6,0.2,1.4,0.3l9.9,1.2
			c0.8,0.1,1.3,0.1,1.5,0.1c0.2-0.1,0.4-0.2,0.6-0.4c0.2-0.2,0.3-0.6,0.3-1L27.6,130.6z"/>
		<path class="st1" d="M16.6,111.1l0.4,0.1c0,0.6,0.1,1.1,0.5,1.6c0.3,0.4,1,1,2.3,2l10.2,7.7l-0.1,0.4l-13,2.4
			c-1.6,0.3-2.5,0.5-2.8,0.7c-0.3,0.2-0.5,0.5-0.7,1.1l-0.4-0.1l1.6-7.1l0.4,0.1l-0.1,0.2c-0.1,0.6-0.2,1.1-0.1,1.4
			c0.1,0.2,0.2,0.3,0.4,0.4c0.1,0,0.3,0,0.5,0c0.2,0,0.7-0.1,1.6-0.3l8.1-1.5l-5.9-4.4c-0.7-0.5-1.2-0.9-1.4-1
			c-0.3-0.1-0.5-0.2-0.7-0.3c-0.2,0-0.4,0-0.6,0c-0.2,0.1-0.4,0.2-0.5,0.4c-0.2,0.3-0.4,0.7-0.5,1.2l-0.4-0.1L16.6,111.1z"/>
		<path class="st1" d="M20.1,103.9L26,106l0.1-0.3c0.3-0.9,0.3-1.7-0.1-2.3s-1.2-1.2-2.2-1.7l0.1-0.4l7.5,2.7l-0.1,0.4
			c-0.8-0.2-1.6-0.3-2.2-0.2c-0.6,0.1-1.1,0.3-1.4,0.6c-0.3,0.3-0.6,0.8-0.8,1.5l4,1.5c0.8,0.3,1.3,0.4,1.5,0.4
			c0.2,0,0.4-0.1,0.6-0.2c0.2-0.1,0.3-0.4,0.5-0.8l0.3-0.9c0.5-1.3,0.6-2.5,0.3-3.6c-0.3-1-1.1-2-2.2-2.8l0.1-0.4l4.3,2.3l-4.5,12.4
			l-0.4-0.1l0.2-0.5c0.2-0.4,0.2-0.8,0.1-1.1c0-0.2-0.1-0.4-0.4-0.6c-0.1-0.1-0.6-0.3-1.3-0.6l-9.4-3.5c-0.6-0.2-1-0.4-1.2-0.4
			c-0.3,0-0.5,0-0.7,0.2c-0.3,0.2-0.5,0.5-0.7,1l-0.2,0.5l-0.4-0.1l4.4-12l4.2,1.6L25.8,99c-1.1-0.2-2-0.2-2.5,0
			c-0.6,0.2-1.1,0.6-1.6,1.2c-0.3,0.3-0.6,1.1-1,2.1L20.1,103.9z"/>
		<path class="st1" d="M33.2,92.1l3.8,2c0.7,0.4,1.2,0.6,1.5,0.6c0.2,0,0.5-0.1,0.7-0.2c0.2-0.2,0.5-0.6,0.8-1.2l0.4,0.2l-3.6,6.9
			l-0.4-0.2c0.3-0.6,0.5-1.1,0.5-1.4c0-0.3-0.1-0.5-0.2-0.7c-0.1-0.2-0.6-0.5-1.3-0.8l-8.8-4.5c-0.7-0.4-1.2-0.6-1.5-0.6
			c-0.2,0-0.5,0.1-0.7,0.2c-0.2,0.2-0.5,0.6-0.8,1.2l-0.4-0.2l3.3-6.3c0.8-1.6,1.6-2.8,2.2-3.4c0.6-0.6,1.4-1,2.2-1.2
			c0.9-0.2,1.7,0,2.5,0.4c1,0.5,1.6,1.3,1.9,2.4c0.2,0.7,0.2,1.5-0.1,2.4l6.3-0.9c0.8-0.1,1.3-0.2,1.6-0.3c0.3-0.2,0.6-0.4,0.8-0.8
			l0.4,0.2L42,90l-8.4,1.2L33.2,92.1z M26.5,88.6l5.9,3.1l0.3-0.6c0.5-0.9,0.8-1.7,0.8-2.2c0.1-0.5,0-1.1-0.4-1.6
			c-0.3-0.5-0.8-0.9-1.5-1.3c-1-0.5-1.9-0.7-2.7-0.5c-0.7,0.2-1.4,0.9-1.9,1.9L26.5,88.6z"/>
		<path class="st1" d="M37.2,68.7l4.3,2.7l-0.3,0.4c-1.2-0.5-2.3-0.7-3.4-0.4c-1.1,0.3-2,0.8-2.5,1.6c-0.4,0.6-0.6,1.2-0.5,1.8
			c0.1,0.6,0.4,1,0.8,1.3c0.3,0.2,0.6,0.3,0.9,0.3c0.4,0,0.9-0.1,1.4-0.3c0.4-0.2,1.2-0.6,2.5-1.3c1.7-1,3.1-1.5,4.1-1.6
			c1-0.1,1.9,0.2,2.7,0.7c1.1,0.7,1.7,1.7,1.9,3.1c0.2,1.3-0.1,2.6-1,3.9c-0.3,0.4-0.6,0.7-0.9,1c-0.3,0.3-0.8,0.6-1.4,1
			c-0.3,0.2-0.6,0.4-0.7,0.6C45,83.9,45,84.1,45,84.4c0,0.3,0.1,0.5,0.3,0.8L45,85.6l-4.8-3.2l0.2-0.3c1.5,0.6,2.9,0.8,4.1,0.5
			c1.2-0.3,2.1-0.9,2.8-1.8c0.5-0.7,0.7-1.4,0.6-2c-0.1-0.7-0.4-1.2-0.9-1.5c-0.3-0.2-0.6-0.3-1-0.3c-0.4,0-0.8,0-1.3,0.2
			c-0.5,0.2-1.2,0.5-2.1,1c-1.3,0.8-2.4,1.3-3.1,1.5c-0.7,0.2-1.4,0.3-2.1,0.3s-1.3-0.3-1.9-0.7c-1-0.7-1.6-1.6-1.8-2.8
			c-0.2-1.2,0.1-2.4,0.8-3.5c0.3-0.4,0.6-0.8,1-1.1c0.3-0.2,0.6-0.5,1.1-0.8c0.5-0.3,0.8-0.5,0.9-0.7c0.1-0.2,0.1-0.3,0.1-0.5
			c0-0.2-0.2-0.4-0.5-0.7L37.2,68.7z"/>
		<path class="st1" d="M56.1,69.2l0.3,0.3l-5,6.2l-0.3-0.3l0.3-0.4c0.3-0.3,0.4-0.7,0.5-1c0-0.2,0-0.4-0.1-0.7c-0.1-0.2-0.4-0.5-1-1
			l-7.8-6.3c-0.6-0.5-1-0.8-1.2-0.8c-0.2-0.1-0.4,0-0.7,0.1c-0.3,0.1-0.5,0.3-0.8,0.7l-0.3,0.4l-0.3-0.3l5-6.2l0.3,0.3l-0.3,0.4
			c-0.3,0.3-0.4,0.7-0.5,1c0,0.2,0,0.4,0.1,0.7c0.1,0.2,0.4,0.5,1,1l7.8,6.3c0.6,0.5,1,0.8,1.2,0.8c0.2,0.1,0.4,0,0.7-0.1
			c0.3-0.1,0.5-0.3,0.8-0.7L56.1,69.2z"/>
		<path class="st1" d="M55.6,48.2l2.9,2.9l-0.3,0.3c-0.8-0.5-1.5-0.8-2-0.9c-0.5-0.1-1,0-1.6,0.2c-0.3,0.1-0.7,0.4-1.2,0.9l-0.8,0.8
			l8.4,8.2c0.6,0.5,0.9,0.9,1.1,0.9c0.2,0.1,0.4,0.1,0.7,0c0.3-0.1,0.6-0.3,0.9-0.6l0.4-0.4l0.3,0.3l-5.6,5.7l-0.3-0.3L59,66
			c0.3-0.3,0.5-0.6,0.6-0.9c0.1-0.2,0-0.4-0.1-0.7c-0.1-0.2-0.4-0.5-0.9-1.1l-8.4-8.2l-0.8,0.8c-0.7,0.7-1.1,1.4-1.1,2.1
			c0,0.9,0.3,1.8,1,2.7L49,60.9L46.1,58L55.6,48.2z"/>
		<path class="st1" d="M70.1,36.5l0.3,0.3c-0.4,0.4-0.6,0.7-0.6,1.1c-0.1,0.5,0,1.5,0.2,3.1l0.8,6.4l2.3,2.9c0.5,0.6,0.8,1,1,1.1
			c0.2,0.1,0.4,0.1,0.7,0.1c0.3,0,0.6-0.2,0.9-0.4l0.7-0.5l0.3,0.3l-6.7,5.3l-0.3-0.3l0.6-0.5c0.4-0.3,0.6-0.6,0.7-0.8
			c0.1-0.2,0.1-0.4,0-0.7c0-0.2-0.3-0.6-0.8-1.2l-1.9-2.4l-6.9-2.9c-1.4-0.6-2.2-0.8-2.6-0.8c-0.4,0-0.7,0.2-1.1,0.4l-0.3-0.3
			l5.7-4.5l0.3,0.3l-0.3,0.2c-0.3,0.3-0.5,0.5-0.6,0.7c-0.1,0.2,0,0.4,0,0.5c0.2,0.2,0.8,0.6,2,1l5.3,2.2l-0.7-5.3
			c-0.2-1.3-0.4-2.1-0.6-2.4c-0.1-0.2-0.3-0.2-0.5-0.2c-0.3,0-0.8,0.2-1.3,0.6l-0.3-0.3L70.1,36.5z"/>
		<path class="st1" d="M81.9,30.3l3.1,5.4l0.4-0.2c0.6-0.3,1-0.7,1.3-1.1c0.3-0.4,0.4-0.9,0.4-1.4c0-0.6-0.1-1.2-0.4-2l0.3-0.2
			l3.8,6.7l-0.3,0.2c-0.8-1.2-1.6-1.8-2.4-1.9c-0.8-0.1-1.5,0.1-2.2,0.5l-0.4,0.2l2.3,4.1c0.4,0.7,0.7,1.1,0.8,1.2
			c0.2,0.1,0.4,0.2,0.7,0.2c0.3,0,0.6-0.1,1-0.3l0.4-0.2l0.2,0.4l-6.9,3.9l-0.2-0.4l0.4-0.2c0.4-0.2,0.7-0.5,0.8-0.7
			c0.1-0.2,0.2-0.4,0.1-0.7c0-0.2-0.2-0.6-0.6-1.3l-4.9-8.7c-0.4-0.7-0.7-1.1-0.8-1.2c-0.2-0.1-0.4-0.2-0.7-0.2
			c-0.3,0-0.6,0.1-1,0.3l-0.4,0.2l-0.2-0.4l11.2-6.3l2.1,3.8l-0.4,0.2c-0.6-0.8-1.2-1.4-1.8-1.6c-0.6-0.2-1.3-0.2-2.1,0
			c-0.4,0.1-1.2,0.5-2.3,1.1L81.9,30.3z"/>
		<path class="st1" d="M97.6,21.4c2.2-1,4.3-1.1,6.3-0.3c2,0.8,3.4,2.3,4.2,4.4c0.7,1.8,0.8,3.6,0.4,5.4c-0.7,2.4-2.2,4.1-4.8,5.1
			c-2.5,1-4.9,1-6.9-0.2c-1.6-0.9-2.9-2.3-3.6-4.2c-0.9-2.1-0.8-4.1,0-6.1C94,23.6,95.5,22.2,97.6,21.4z M98,22
			c-1.3,0.5-2,1.6-2.1,3.2c-0.1,1.3,0.3,3,1.1,5c1,2.4,2.1,4,3.4,4.8c0.9,0.6,1.9,0.6,3,0.2c0.7-0.3,1.2-0.7,1.6-1.2
			c0.4-0.7,0.6-1.6,0.6-2.7c-0.1-1.1-0.4-2.5-1-4c-0.8-1.9-1.5-3.2-2.2-4c-0.7-0.8-1.4-1.3-2.1-1.4C99.4,21.7,98.7,21.8,98,22z"/>
		<path class="st1" d="M115.5,24.3l1.1,4.1c0.2,0.8,0.4,1.3,0.5,1.5c0.2,0.2,0.4,0.3,0.6,0.4c0.3,0.1,0.8,0,1.4-0.2l0.1,0.4
			l-7.6,1.9l-0.1-0.4c0.7-0.2,1.1-0.4,1.3-0.5c0.2-0.2,0.3-0.4,0.4-0.6c0-0.2,0-0.7-0.2-1.5l-2.4-9.6c-0.2-0.8-0.4-1.3-0.5-1.5
			c-0.2-0.2-0.4-0.3-0.6-0.4c-0.3-0.1-0.8,0-1.4,0.2l-0.1-0.4l6.9-1.8c1.8-0.5,3.1-0.7,4-0.6c0.9,0,1.7,0.3,2.4,0.8
			c0.7,0.5,1.2,1.2,1.4,2.1c0.3,1.1,0.1,2.1-0.5,3c-0.4,0.6-1,1.1-1.8,1.5l4.8,4.1c0.6,0.5,1.1,0.8,1.3,1c0.4,0.1,0.7,0.2,1.1,0.1
			l0.1,0.4l-4.6,1.2l-6.5-5.5L115.5,24.3z M113.6,17.1l1.7,6.5l0.6-0.2c1-0.3,1.7-0.5,2.2-0.9c0.5-0.3,0.8-0.7,0.9-1.3
			c0.2-0.6,0.1-1.2-0.1-2c-0.3-1.1-0.8-1.9-1.4-2.3c-0.7-0.4-1.6-0.5-2.7-0.2L113.6,17.1z"/>
		<path class="st1" d="M141.9,11.2l0.6,5l-0.5,0c-0.3-1.2-1-2.2-1.9-2.9c-0.9-0.7-1.9-1-2.9-0.9c-0.8,0.1-1.3,0.3-1.8,0.8
			c-0.4,0.4-0.6,0.9-0.5,1.5c0,0.3,0.1,0.6,0.3,0.9c0.2,0.3,0.6,0.6,1.1,0.9c0.4,0.2,1.2,0.6,2.5,1.1c1.9,0.7,3.1,1.4,3.8,2.2
			c0.7,0.7,1.1,1.6,1.2,2.6c0.1,1.3-0.3,2.4-1.2,3.4c-0.9,1-2.1,1.6-3.6,1.7c-0.5,0-0.9,0-1.4,0c-0.4-0.1-1-0.2-1.6-0.4
			c-0.4-0.1-0.7-0.2-0.9-0.1c-0.2,0-0.4,0.1-0.6,0.3c-0.2,0.2-0.4,0.4-0.5,0.7l-0.4,0l-0.5-5.7l0.4,0c0.5,1.6,1.2,2.8,2.2,3.5
			c1,0.8,2.1,1.1,3.1,1c0.8-0.1,1.5-0.4,1.9-0.9c0.5-0.5,0.7-1.1,0.6-1.7c0-0.4-0.2-0.7-0.4-1c-0.2-0.3-0.5-0.6-1-0.9
			c-0.4-0.3-1.1-0.6-2.2-1c-1.4-0.6-2.5-1-3.1-1.5c-0.6-0.4-1.2-0.9-1.5-1.5c-0.4-0.6-0.6-1.2-0.7-1.9c-0.1-1.2,0.2-2.3,1.1-3.2
			c0.8-0.9,1.9-1.5,3.2-1.6c0.5,0,1,0,1.4,0.1c0.4,0.1,0.8,0.2,1.3,0.4c0.5,0.2,0.9,0.3,1.1,0.3c0.2,0,0.3-0.1,0.4-0.2
			s0.2-0.4,0.2-0.9L141.9,11.2z"/>
		<path class="st1" d="M160.6,11.3l-0.1,5.3l-0.4,0c-0.3-1.4-0.9-2.5-1.8-3.2s-1.9-1.1-3-1.2c-1,0-1.8,0.2-2.6,0.8
			c-0.8,0.5-1.4,1.2-1.8,2.1c-0.5,1.1-0.8,2.4-0.8,3.8c0,1.4,0.1,2.6,0.4,3.7c0.3,1.1,0.8,2,1.6,2.6c0.7,0.6,1.7,0.9,2.8,0.9
			c1,0,1.8-0.2,2.6-0.6c0.8-0.4,1.7-1.1,2.6-2.1l0,1.3c-0.9,0.9-1.8,1.5-2.7,1.9c-0.9,0.4-2,0.6-3.3,0.5c-1.6,0-3.1-0.4-4.3-1.1
			c-1.2-0.7-2.2-1.6-2.9-2.9c-0.7-1.2-1-2.5-0.9-3.9c0-1.5,0.5-2.8,1.2-4.1c0.8-1.3,1.8-2.3,3.2-3c1.3-0.7,2.7-1,4.1-1
			c1.1,0,2.2,0.3,3.4,0.8c0.7,0.3,1.1,0.4,1.3,0.4c0.2,0,0.4-0.1,0.6-0.2c0.2-0.2,0.3-0.4,0.4-0.8L160.6,11.3z"/>
		<path class="st1" d="M169.5,27.7l-0.1,0.4l-7.9-1l0.1-0.4l0.5,0.1c0.4,0.1,0.8,0,1.1-0.1c0.2-0.1,0.4-0.2,0.5-0.5
			c0.1-0.2,0.2-0.6,0.3-1.4l1.2-9.9c0.1-0.8,0.1-1.3,0.1-1.5c-0.1-0.2-0.2-0.4-0.4-0.6c-0.2-0.2-0.6-0.3-1-0.3l-0.5-0.1l0.1-0.4
			l7.9,1l-0.1,0.4l-0.5-0.1c-0.4-0.1-0.8,0-1.1,0.1c-0.2,0.1-0.4,0.2-0.5,0.5c-0.1,0.2-0.2,0.6-0.3,1.4l-1.2,9.9
			c-0.1,0.8-0.1,1.3-0.1,1.5s0.2,0.4,0.4,0.6c0.2,0.2,0.6,0.3,1,0.3L169.5,27.7z"/>
		<path class="st1" d="M178.9,15.3l-1.4,6l0.3,0.1c0.9,0.2,1.7,0.1,2.2-0.4c0.6-0.5,1-1.3,1.4-2.4l0.4,0.1l-1.7,7.8l-0.4-0.1
			c0.1-0.9,0.1-1.6-0.1-2.2c-0.2-0.6-0.4-1-0.7-1.3c-0.3-0.3-0.9-0.5-1.6-0.6l-0.9,4.2c-0.2,0.8-0.3,1.3-0.2,1.5
			c0,0.2,0.1,0.4,0.3,0.5c0.2,0.2,0.5,0.3,0.9,0.4l0.9,0.2c1.4,0.3,2.6,0.2,3.6-0.2c1-0.5,1.8-1.3,2.5-2.5l0.4,0.1l-1.7,4.6
			L170.1,28l0.1-0.4l0.5,0.1c0.4,0.1,0.8,0.1,1.1,0c0.2-0.1,0.4-0.2,0.6-0.4c0.1-0.2,0.3-0.6,0.4-1.4l2.2-9.8
			c0.1-0.7,0.2-1.1,0.2-1.3c0-0.3-0.1-0.5-0.3-0.7c-0.2-0.3-0.6-0.5-1.1-0.6l-0.5-0.1l0.1-0.4l12.4,2.8l-1,4.4l-0.4-0.1
			c0-1.1-0.1-2-0.4-2.5c-0.3-0.6-0.7-1-1.4-1.4c-0.4-0.2-1.1-0.5-2.3-0.7L178.9,15.3z"/>
		<path class="st1" d="M194.8,18.8l3.9,11.4l2.2-6.2c0.3-0.9,0.4-1.5,0.3-1.9c-0.2-0.5-0.7-0.9-1.5-1.2l0.1-0.4l4.7,1.7l-0.1,0.4
			c-0.6-0.1-1.1-0.2-1.3-0.1c-0.3,0-0.5,0.2-0.7,0.4c-0.2,0.2-0.4,0.7-0.7,1.4l-4.3,11.9l-0.4-0.1l-5.4-15.4l-3.3,9.1
			c-0.3,0.8-0.3,1.4,0,1.9c0.3,0.4,0.7,0.7,1.1,0.9l0.3,0.1l-0.1,0.4l-5.1-1.8l0.1-0.4c0.8,0.3,1.4,0.3,1.8,0.1
			c0.4-0.2,0.8-0.7,1-1.4l3.7-10.1l-0.2-0.5c-0.2-0.5-0.3-0.8-0.5-1c-0.2-0.2-0.5-0.4-0.9-0.6l0.1-0.4L194.8,18.8z"/>
		<path class="st1" d="M220.2,29.8l-2.4,4.7l-0.4-0.2c0.3-1.4,0.3-2.6-0.2-3.7c-0.5-1.1-1.2-1.9-2.2-2.4c-0.8-0.4-1.7-0.6-2.7-0.5
			c-1,0.1-1.8,0.5-2.5,1.1c-0.9,0.8-1.7,1.8-2.4,3c-0.6,1.2-1,2.4-1.3,3.5c-0.2,1.2-0.1,2.2,0.3,3c0.4,0.8,1.1,1.5,2.1,2.1
			c0.9,0.4,1.7,0.7,2.6,0.7c0.9,0,2-0.3,3.2-0.8l-0.6,1.2c-1.2,0.4-2.3,0.6-3.3,0.5c-1-0.1-2.1-0.4-3.2-1c-1.4-0.7-2.6-1.7-3.4-2.9
			c-0.8-1.2-1.3-2.4-1.3-3.8c0-1.4,0.2-2.7,0.9-3.9c0.7-1.3,1.6-2.3,2.9-3.1c1.3-0.8,2.6-1.2,4.1-1.3c1.5,0,2.9,0.3,4.2,0.9
			c1,0.5,1.8,1.2,2.7,2.2c0.5,0.6,0.8,0.9,1,1c0.2,0.1,0.4,0.1,0.7,0.1c0.2-0.1,0.5-0.3,0.7-0.6L220.2,29.8z"/>
		<path class="st1" d="M227,35.8l-3.5,5.1l0.2,0.2c0.8,0.5,1.5,0.7,2.2,0.4c0.7-0.3,1.4-0.8,2.2-1.7l0.4,0.2l-4.5,6.6l-0.4-0.2
			c0.4-0.8,0.7-1.5,0.7-2.1c0.1-0.6,0-1.1-0.2-1.5c-0.2-0.4-0.6-0.8-1.2-1.2l-2.4,3.5c-0.5,0.7-0.7,1.1-0.8,1.3c0,0.2,0,0.4,0.1,0.6
			c0.1,0.2,0.3,0.4,0.7,0.7l0.7,0.5c1.2,0.8,2.3,1.2,3.4,1.1c1.1-0.1,2.2-0.5,3.2-1.4l0.3,0.2l-3.3,3.6l-10.8-7.5l0.2-0.3l0.4,0.3
			c0.4,0.3,0.7,0.4,1,0.4c0.2,0,0.4,0,0.7-0.2c0.2-0.1,0.5-0.5,0.9-1.1l5.7-8.2c0.4-0.6,0.6-0.9,0.7-1.1c0.1-0.3,0.1-0.5,0-0.7
			c-0.1-0.3-0.4-0.6-0.8-0.9l-0.4-0.3l0.2-0.3l10.5,7.2l-2.6,3.7l-0.4-0.2c0.4-1,0.6-1.9,0.6-2.5c-0.1-0.6-0.3-1.2-0.8-1.8
			c-0.3-0.3-0.9-0.9-1.8-1.5L227,35.8z"/>
		<path class="st1" d="M246.1,58.7l3.3,3.3l-0.3,0.3c-0.4-0.3-0.8-0.5-1.2-0.5c-0.4,0-1,0.1-2,0.3c-0.9,0.3-2.1,0.5-3.5,0.6
			c0.1,1,0.2,1.8,0.3,2.3c0.1,0.4,0.3,0.7,0.5,0.9c0.4,0.4,1,0.5,1.8,0.3l0.2,0.5c-1.3,0.4-2.4,0.6-3.2,0.4
			c-0.6-0.1-1.2-0.4-1.7-0.9c-0.4-0.4-0.7-0.9-0.9-1.4c-0.2-0.6-0.3-1.3-0.4-2.4c-1.1-0.2-2.1-0.5-2.8-0.9c-0.8-0.4-1.5-0.9-2.1-1.5
			c-1-1-1.5-2.1-1.6-3.2c0-1.1,0.3-2.1,1-2.8c0.8-0.8,1.8-1.2,2.9-1.2c1.2,0,2.5,0.3,4,0.9c0.2-0.5,0.4-0.9,0.7-1.3
			c0.3-0.4,0.5-0.7,0.8-1.1c0.8-0.8,1.8-1.3,3-1.2c1.2,0,2.2,0.5,3.1,1.4c0.7,0.7,1.2,1.5,1.2,2.3c0.1,0.8-0.2,1.5-0.6,2
			c-0.6,0.6-1.3,0.9-2.2,0.9c-0.9,0-2-0.3-3.3-0.9c-0.5,1.7-0.7,3.7-0.8,6c1.7-0.1,2.8-0.5,3.4-1.1c0.2-0.2,0.3-0.5,0.3-0.8
			c0-0.3-0.1-0.6-0.4-1L246.1,58.7z M240.2,54.5c-0.6-0.2-1.1-0.4-1.5-0.3c-0.5,0-1,0.3-1.4,0.6c-0.5,0.5-0.8,1.1-1,1.9
			s-0.2,1.5-0.1,2.2c0.1,0.7,0.4,1.2,0.8,1.6c0.2,0.2,0.5,0.4,0.8,0.5s0.7,0.3,1.2,0.4C239.1,58.9,239.4,56.6,240.2,54.5z
			 M243.4,55.1c0.8,0.3,1.4,0.5,1.8,0.5c0.4,0,0.8-0.2,1.1-0.6c0.6-0.6,0.9-1.3,1-2c0.1-0.5-0.1-0.9-0.4-1.2
			c-0.2-0.2-0.6-0.4-0.9-0.3c-0.4,0-0.7,0.2-1.1,0.5c-0.3,0.3-0.5,0.6-0.7,1C244.1,53.3,243.8,54.1,243.4,55.1z"/>
		<path class="st1" d="M267.6,76.3l-3.4,2.4l-0.2-0.3c0.6-0.7,1-1.4,1.2-1.8c0.2-0.5,0.2-1,0.1-1.6c-0.1-0.3-0.3-0.8-0.7-1.3
			l-0.7-0.9l-9.6,6.7c-0.6,0.4-1,0.8-1.1,0.9c-0.1,0.2-0.2,0.4-0.1,0.7c0,0.3,0.2,0.6,0.4,1l0.3,0.4l-0.3,0.2l-4.6-6.5l0.3-0.2
			l0.3,0.4c0.3,0.4,0.5,0.6,0.8,0.7c0.2,0.1,0.4,0.1,0.7,0.1c0.2,0,0.6-0.3,1.2-0.7l9.6-6.7l-0.6-0.9c-0.6-0.8-1.2-1.3-1.8-1.5
			c-0.9-0.2-1.8,0-2.8,0.5l-0.2-0.4l3.4-2.4L267.6,76.3z"/>
		<path class="st1" d="M271,84.1l-5.5,2.9l0.1,0.3c0.5,0.9,1.1,1.3,1.8,1.4c0.7,0.1,1.7-0.1,2.8-0.5l0.2,0.4l-7,3.7l-0.2-0.4
			c0.7-0.5,1.3-1,1.6-1.5c0.4-0.5,0.5-1,0.5-1.4c0-0.4-0.2-1-0.5-1.6l-3.8,2c-0.7,0.4-1.2,0.7-1.3,0.8c-0.1,0.2-0.2,0.3-0.2,0.6
			c0,0.2,0.1,0.5,0.3,0.9l0.4,0.8c0.7,1.3,1.5,2.1,2.5,2.6c1,0.4,2.2,0.5,3.5,0.2l0.2,0.4l-4.6,1.7l-6.2-11.6l0.4-0.2l0.2,0.4
			c0.2,0.4,0.4,0.7,0.7,0.8c0.2,0.1,0.4,0.2,0.7,0.1c0.2,0,0.6-0.2,1.3-0.6l8.8-4.7c0.6-0.3,1-0.5,1.1-0.6c0.2-0.2,0.3-0.4,0.3-0.7
			c0.1-0.3,0-0.7-0.3-1.2l-0.2-0.4l0.4-0.2l6,11.3l-4,2.1l-0.2-0.4c0.9-0.7,1.4-1.3,1.7-1.9c0.2-0.6,0.3-1.2,0.1-2
			c-0.1-0.4-0.4-1.2-0.9-2.2L271,84.1z"/>
		<path class="st1" d="M282.5,107.3l-4.9,1.9l-0.2-0.4c1.2-0.8,1.9-1.7,2.3-2.8c0.4-1.1,0.3-2.2-0.1-3.2c-0.3-0.9-0.9-1.6-1.7-2.2
			c-0.8-0.5-1.7-0.8-2.6-0.9c-1.2,0-2.5,0.2-3.8,0.7c-1.3,0.5-2.4,1.1-3.3,1.8c-0.9,0.7-1.5,1.5-1.8,2.4c-0.3,0.9-0.2,1.9,0.2,3
			c0.3,0.9,0.8,1.6,1.5,2.2c0.7,0.6,1.6,1.1,2.9,1.6l-1.2,0.5c-1.1-0.5-2.1-1.1-2.8-1.8c-0.7-0.7-1.3-1.7-1.7-2.8
			c-0.6-1.5-0.8-3-0.6-4.4c0.2-1.4,0.7-2.7,1.6-3.7c0.9-1.1,2-1.9,3.3-2.3c1.4-0.5,2.8-0.6,4.3-0.4c1.5,0.2,2.8,0.8,3.9,1.8
			c1.1,1,2,2.1,2.5,3.5c0.4,1,0.6,2.1,0.6,3.4c0,0.7,0,1.2,0.1,1.4c0.1,0.2,0.2,0.4,0.5,0.5s0.5,0.1,0.9,0L282.5,107.3z"/>
		<path class="st1" d="M276.8,118l-4.6,1.1c-0.8,0.2-1.2,0.3-1.4,0.5c-0.2,0.1-0.3,0.3-0.4,0.6c-0.1,0.3-0.1,0.6,0,1l0.1,0.5
			l-0.4,0.1l-1.8-7.8l0.4-0.1l0.1,0.5c0.1,0.4,0.3,0.8,0.5,1c0.1,0.2,0.4,0.3,0.6,0.3c0.2,0,0.7,0,1.4-0.2l9.8-2.2
			c0.8-0.2,1.2-0.3,1.4-0.4c0.2-0.1,0.3-0.3,0.4-0.6c0.1-0.3,0.1-0.6,0-1l-0.1-0.5l0.4-0.1l1.8,7.8l-0.4,0.1l-0.1-0.5
			c-0.1-0.4-0.3-0.8-0.5-1c-0.1-0.2-0.4-0.3-0.6-0.3c-0.2,0-0.7,0-1.4,0.2l-4.2,1l1.2,5.2l4.2-1c0.8-0.2,1.2-0.3,1.4-0.4
			c0.2-0.1,0.3-0.3,0.4-0.6s0.1-0.6,0-1l-0.1-0.5l0.4-0.1l1.8,7.8l-0.4,0.1l-0.1-0.5c-0.1-0.4-0.3-0.8-0.5-1
			c-0.1-0.2-0.4-0.3-0.6-0.3c-0.2,0-0.7,0-1.4,0.2l-9.8,2.2c-0.8,0.2-1.2,0.3-1.4,0.4c-0.2,0.1-0.3,0.3-0.4,0.6
			c-0.1,0.3-0.1,0.6,0,1l0.1,0.5l-0.4,0.1l-1.8-7.8l0.4-0.1l0.1,0.5c0.1,0.4,0.3,0.8,0.5,1c0.1,0.2,0.4,0.3,0.6,0.3
			c0.2,0,0.7,0,1.4-0.2l4.6-1.1L276.8,118z"/>
		<path class="st1" d="M287.9,134.8l-8.7,8.3l6.5-0.6c0.9-0.1,1.5-0.3,1.8-0.6c0.4-0.4,0.6-1,0.5-1.9l0.4,0l0.5,5l-0.4,0
			c-0.1-0.6-0.3-1.1-0.4-1.3c-0.2-0.2-0.4-0.4-0.7-0.5c-0.3-0.1-0.8-0.1-1.5,0l-12.6,1.1l0-0.4l11.7-11.4l-9.6,0.9
			c-0.9,0.1-1.4,0.3-1.7,0.8c-0.3,0.4-0.4,0.9-0.3,1.4l0,0.4l-0.4,0l-0.5-5.4l0.4,0c0.1,0.8,0.3,1.4,0.7,1.7c0.4,0.3,1,0.4,1.8,0.3
			l10.7-1l0.4-0.4c0.4-0.4,0.6-0.7,0.7-0.9c0.1-0.3,0.1-0.6,0.1-1.1l0.4,0L287.9,134.8z"/>
		<path class="st1" d="M288.7,156.1c0,2.4-0.8,4.4-2.4,5.8c-1.6,1.4-3.5,2.1-5.7,2c-1.9-0.1-3.6-0.7-5-1.9c-1.9-1.6-2.8-3.7-2.6-6.5
			c0.1-2.7,1.1-4.8,3.1-6.2c1.5-1.1,3.3-1.6,5.3-1.5c2.3,0.1,4.1,0.9,5.5,2.6C288.3,151.9,288.9,153.9,288.7,156.1z M288,156.2
			c0.1-1.4-0.6-2.5-2-3.3c-1.1-0.6-2.8-1-5-1.1c-2.6-0.1-4.5,0.3-5.8,1.1c-0.9,0.6-1.4,1.5-1.4,2.6c0,0.8,0.1,1.4,0.5,2
			c0.4,0.7,1.2,1.2,2.2,1.6s2.4,0.7,4.1,0.7c2,0.1,3.5,0,4.5-0.4c1-0.3,1.7-0.8,2.2-1.3C287.7,157.6,288,157,288,156.2z"/>
		<path class="st1" d="M275.6,179.2l-5.2-1.5l2.3-13.3l0.4,0.1l-0.1,0.5c-0.1,0.4-0.1,0.8,0,1.1c0.1,0.2,0.2,0.4,0.5,0.5
			c0.2,0.1,0.6,0.2,1.4,0.4l9.9,1.7c0.8,0.1,1.3,0.2,1.5,0.1c0.2,0,0.4-0.2,0.6-0.4c0.2-0.2,0.3-0.5,0.4-1l0.1-0.5l0.4,0.1l-1.4,8
			l-0.4-0.1l0.1-0.7c0.1-0.4,0.1-0.8,0-1.1c-0.1-0.2-0.2-0.4-0.5-0.5c-0.2-0.1-0.6-0.2-1.4-0.4l-9.6-1.7c-0.8-0.1-1.3-0.2-1.5-0.1
			c-0.2,0.1-0.4,0.2-0.6,0.4c-0.1,0.2-0.2,0.6-0.3,1.3l-0.2,1.3c-0.1,0.8-0.1,1.5,0.1,2.1c0.2,0.6,0.5,1.1,1.1,1.6
			c0.5,0.5,1.4,1,2.5,1.6L275.6,179.2z"/>
		<path class="st1" d="M282.5,191.7c-0.6,2.3-1.9,4-3.8,5c-1.9,1-3.9,1.1-6.1,0.5c-1.8-0.6-3.3-1.6-4.3-3.2c-1.4-2-1.7-4.3-0.9-6.9
			c0.8-2.6,2.3-4.4,4.6-5.2c1.8-0.7,3.6-0.7,5.5-0.1c2.2,0.7,3.7,2,4.7,3.9C283.1,187.6,283.2,189.6,282.5,191.7z M281.8,191.7
			c0.4-1.3,0.1-2.6-1.1-3.7c-0.9-0.9-2.4-1.7-4.5-2.4c-2.5-0.8-4.4-0.9-5.9-0.4c-1,0.3-1.7,1.1-2,2.2c-0.2,0.7-0.2,1.4,0,2
			c0.3,0.8,0.8,1.5,1.7,2.2s2.1,1.3,3.8,1.8c1.9,0.6,3.4,0.9,4.5,0.8c1.1-0.1,1.9-0.3,2.4-0.7C281.1,193,281.5,192.4,281.8,191.7z"
			/>
		<path class="st1" d="M272.4,216.3l-4.8-2.3l0.2-0.4c1.5,0.2,2.9,0,4-0.6c1.1-0.6,1.9-1.4,2.5-2.5c0.5-1,0.6-2,0.4-3
			s-0.8-1.8-1.7-2.6c-0.9-0.8-1.9-1.4-3-2c-1.3-0.6-2.5-1-3.7-1.2c-1.1-0.2-2.1,0-2.9,0.5c-0.8,0.5-1.4,1.2-1.9,2.1
			c-0.2,0.3-0.3,0.7-0.4,1.1c-0.1,0.4-0.2,0.8-0.2,1.2l2.9,1.4c0.5,0.3,0.9,0.4,1.1,0.4c0.2,0,0.4-0.1,0.7-0.3
			c0.2-0.2,0.4-0.4,0.6-0.8l0.2-0.4l0.4,0.2l-3.2,6.7l-0.4-0.2c0.2-0.5,0.3-0.9,0.3-1.2c0-0.2-0.1-0.5-0.3-0.7
			c-0.1-0.1-0.4-0.3-0.9-0.5l-2.9-1.4c0-1.1,0.2-2.1,0.4-3.2c0.3-1,0.6-2.1,1.1-3.1c0.6-1.3,1.3-2.3,2.1-3c0.8-0.7,1.6-1.2,2.5-1.6
			c0.9-0.4,1.8-0.6,2.7-0.6c1.2,0,2.3,0.2,3.5,0.8c2.1,1,3.5,2.6,4.2,4.7c0.7,2.1,0.6,4.3-0.5,6.5c-0.3,0.7-0.7,1.3-1,1.8
			c-0.2,0.3-0.6,0.7-1.2,1.2c-0.6,0.5-0.9,0.9-0.9,1c-0.1,0.2-0.1,0.4,0,0.6c0.1,0.2,0.3,0.5,0.6,0.8L272.4,216.3z"/>
		<path class="st1" d="M261.4,232.9l-0.3-0.2c0.2-0.5,0.3-0.9,0.3-1.2c-0.1-0.5-0.4-1.5-1.2-2.9l-2.8-5.8l-3.1-2
			c-0.7-0.4-1.1-0.7-1.3-0.7c-0.2,0-0.4,0-0.7,0.1c-0.3,0.1-0.5,0.4-0.7,0.7l-0.5,0.7l-0.3-0.2l4.7-7.1l0.3,0.2l-0.4,0.7
			c-0.2,0.4-0.4,0.7-0.4,1c0,0.2,0,0.4,0.2,0.7c0.1,0.2,0.5,0.5,1.1,0.9l2.5,1.7l7.4,0.6c1.5,0.1,2.4,0.1,2.7,0
			c0.4-0.1,0.7-0.4,0.9-0.8l0.3,0.2l-4,6.1l-0.3-0.2l0.2-0.3c0.2-0.4,0.4-0.7,0.4-0.9c0-0.2-0.1-0.4-0.2-0.4c-0.2-0.1-1-0.3-2.2-0.4
			l-5.7-0.5l2.3,4.8c0.6,1.2,1,1.9,1.3,2.1c0.2,0.1,0.4,0.1,0.6,0c0.3-0.1,0.6-0.4,1.1-1l0.3,0.2L261.4,232.9z"/>
	</g>
	<g>
		<path id="OPERA_x5F_HOUZE_1_" class="st2" d="M264,138.3c0,19.3-4.8,37.4-13.2,53.3H49.2c-8.4-15.9-13.2-34-13.2-53.3
			c0-2.7,0.1-5.4,0.3-8.1h52.1v-16h22.4L136,98.8C136.8,85,149.8,85,149.8,85c13.8,1.2,13.8,13.8,13.8,13.8l24.7,15.3H212v16h51.7
			C263.9,132.9,264,135.6,264,138.3z"/>
		<path id="XMLID_53_" class="st3" d="M264.4,149.5c0,14.9-2.9,29.1-8.1,42.1H44.5c-5.2-13-8.1-27.3-8.1-42.1c0-2.7,0.1-5.4,0.3-8.1
			c0.3-3.8,0.7-7.5,1.3-11.2h46.2V115h27.6v-2.9l23.2-13.2C135.9,85,149.8,85,149.8,85c14.7,1.2,14.7,13.8,14.7,13.8l23,13.3v2.8h23
			v0h5.6v15.2h46.6c0.6,3.7,1.1,7.4,1.3,11.2C264.3,144,264.4,146.7,264.4,149.5z"/>
		<rect id="XMLID_27_" x="138.3" y="130.5" class="st0" width="26" height="49.1"/>
		<rect id="XMLID_26_" x="174.1" y="130.5" class="st0" width="6.8" height="49.1"/>
		<rect id="XMLID_25_" x="195" y="130.5" class="st0" width="6.8" height="49.1"/>
		<rect id="XMLID_22_" x="211.5" y="147" class="st0" width="6.8" height="32.3"/>
		<rect id="XMLID_21_" x="223.5" y="147" class="st0" width="6.8" height="32.3"/>
		<rect id="XMLID_20_" x="236.2" y="147" class="st0" width="6.8" height="32.3"/>
		<rect id="XMLID_19_" x="248.4" y="147" class="st0" width="6.8" height="32.3"/>
		<rect id="XMLID_18_" x="121.3" y="130.5" class="st0" width="6.8" height="49.1"/>
		<rect id="XMLID_15_" x="102.5" y="130.5" class="st0" width="6.8" height="49.1"/>
		<rect id="XMLID_12_" x="82" y="147" class="st0" width="6.8" height="32.3"/>
		<rect id="XMLID_11_" x="69.6" y="147" class="st0" width="6.8" height="32.3"/>
		<rect id="XMLID_10_" x="57.4" y="147" class="st0" width="6.8" height="32.3"/>
		<rect id="XMLID_7_" x="44.9" y="147" class="st0" width="6.8" height="32.3"/>
		<path id="XMLID_52_" class="st3" d="M264.4,149.5c0,14.9-2.9,29.1-8.1,42.1H44.5c-5.2-13-8.1-27.3-8.1-42.1c0-2.7,0.1-5.4,0.3-8.1
			c0.3-3.8,0.7-7.5,1.3-11.2h46.2V115h27.6v-2.9l23.2-13.2C135.9,85,149.8,85,149.8,85c14.7,1.2,14.7,13.8,14.7,13.8l23,13.3v2.8h23
			v0h5.6v15.2h46.6c0.6,3.7,1.1,7.4,1.3,11.2C264.3,144,264.4,146.7,264.4,149.5z"/>
		<rect id="XMLID_23_" x="138.3" y="130.5" class="st0" width="26" height="49.1"/>
		<rect id="XMLID_17_" x="174.1" y="130.5" class="st0" width="6.8" height="49.1"/>
		<rect id="XMLID_16_" x="195" y="130.5" class="st0" width="6.8" height="49.1"/>
		<rect id="XMLID_14_" x="211.5" y="147" class="st0" width="6.8" height="32.3"/>
		<rect id="XMLID_13_" x="223.5" y="147" class="st0" width="6.8" height="32.3"/>
		<rect id="XMLID_9_" x="236.2" y="147" class="st0" width="6.8" height="32.3"/>
		<rect id="XMLID_8_" x="248.4" y="147" class="st0" width="6.8" height="32.3"/>
		<rect id="XMLID_6_" x="121.3" y="130.5" class="st0" width="6.8" height="49.1"/>
		<rect id="XMLID_5_" x="102.5" y="130.5" class="st0" width="6.8" height="49.1"/>
		<rect id="XMLID_4_" x="82" y="147" class="st0" width="6.8" height="32.3"/>
		<rect id="XMLID_3_" x="69.6" y="147" class="st0" width="6.8" height="32.3"/>
		<rect id="XMLID_2_" x="57.4" y="147" class="st0" width="6.8" height="32.3"/>
		<rect id="XMLID_1_" x="44.9" y="147" class="st0" width="6.8" height="32.3"/>
	</g>
	<path id="inner_5_" class="st4" d="M264.4,149.5c0,19.3-4.8,37.4-13.2,53.3c-19.1,36.1-57.1,60.7-100.8,60.7
		c-43.7,0-81.7-24.6-100.8-60.7c-8.4-15.9-13.2-34-13.2-53.3c0-2.7,0.1-5.4,0.3-8.1C40.9,82.2,90.2,35.5,150.4,35.5
		S260,82.2,264.1,141.3C264.3,144,264.4,146.7,264.4,149.5z"/>
	<g id="MUST">
		<path class="st1" d="M93.1,250l12.3,4.6l-2.2,20.3l11.7-16.7l12.3,4.6l-11.4,30.4l-7.7-2.9l8.7-23.2l-14.6,20.9l-7-2.6l2.8-25.4
			l-8.7,23.1l-7.7-2.9L93.1,250z"/>
		<path class="st1" d="M151,263.7l10,0.4l-0.8,19.3c-0.1,1.9-0.4,3.7-1.1,5.4c-0.7,1.7-1.7,3.1-3,4.4c-1.3,1.2-2.7,2.1-4.1,2.5
			c-2,0.6-4.3,0.9-7,0.8c-1.6-0.1-3.3-0.2-5.1-0.5c-1.9-0.3-3.4-0.8-4.6-1.5c-1.2-0.7-2.3-1.7-3.3-2.9c-1-1.2-1.7-2.5-2-3.8
			c-0.5-2.1-0.8-3.9-0.7-5.5l0.8-19.3l10,0.4l-0.8,19.8c-0.1,1.8,0.4,3.2,1.3,4.2c0.9,1,2.3,1.6,4,1.7c1.7,0.1,3.1-0.4,4.1-1.3
			c1-0.9,1.6-2.3,1.6-4.1L151,263.7z"/>
		<path class="st1" d="M167.6,285l9.1-2.8c0.6,1.5,1.3,2.5,2.1,3.1c1.3,1,2.9,1.3,4.8,0.9c1.4-0.3,2.4-0.9,3-1.8
			c0.6-0.8,0.8-1.7,0.6-2.5c-0.2-0.8-0.7-1.5-1.6-1.9c-0.9-0.5-2.7-0.7-5.4-0.6c-4.5,0.1-7.9-0.5-10.1-1.6c-2.2-1.1-3.6-3-4.2-5.4
			c-0.4-1.6-0.3-3.3,0.3-4.9c0.6-1.7,1.7-3.1,3.4-4.4c1.7-1.3,4.2-2.3,7.4-3.1c4-1,7.3-1,9.8,0c2.5,1,4.3,3.1,5.5,6.2l-9,2.8
			c-0.6-1.4-1.3-2.3-2.3-2.7s-2.1-0.5-3.5-0.2c-1.1,0.3-1.9,0.7-2.4,1.3c-0.5,0.6-0.6,1.3-0.4,2c0.1,0.5,0.5,0.9,1,1.2
			c0.6,0.3,1.7,0.4,3.5,0.4c4.5-0.1,7.8,0.1,9.8,0.6c2.1,0.5,3.7,1.3,4.9,2.5c1.2,1.2,2,2.6,2.4,4.4c0.5,2,0.4,4-0.3,6
			c-0.7,2-2,3.6-3.7,5c-1.8,1.4-4.2,2.4-7.3,3.2c-5.4,1.3-9.3,1.2-11.9-0.4C170.4,290.4,168.6,288.1,167.6,285z"/>
		<path class="st1" d="M190.8,257.2l26.7-14.6l3.8,7l-9,4.9L224,276l-8.8,4.8l-11.7-21.4l-9,4.9L190.8,257.2z"/>
	</g>
	<circle id="outer_2_" class="st4" cx="150" cy="150" r="147"/>
	<g id="KNOWLEDGE">
		<path class="st1" d="M71.8,215.1l7.7-7l1.4,1.6l-3.4,3.1l6.2,0l1.9,2.1l-5.6-0.2L78,222l-1.8-2l1.7-5.4l-2.4-0.1l-2.3,2.1
			L71.8,215.1z"/>
		<path class="st1" d="M79.4,223.2l6.9-7.7l1.5,1.4l-1.4,8l4.6-5.2l1.5,1.3l-6.9,7.7l-1.6-1.4l1.4-7.8l-4.5,5L79.4,223.2z"/>
		<path class="st1" d="M90.4,226.1c0.6-0.9,1.2-1.5,1.9-1.9c0.5-0.3,1-0.5,1.6-0.6c0.6-0.1,1.1-0.1,1.6,0c0.7,0.1,1.4,0.5,2.1,1
			c1.2,0.9,2,2,2.2,3.3c0.2,1.3-0.2,2.6-1.2,4c-1,1.4-2.1,2.2-3.4,2.4c-1.3,0.2-2.6-0.1-3.8-0.9c-1.3-0.9-2-2-2.2-3.3
			C89,228.8,89.4,227.5,90.4,226.1z M92.2,227.3c-0.7,1-1,1.8-0.9,2.6c0.1,0.8,0.5,1.5,1.2,1.9c0.7,0.5,1.4,0.6,2.2,0.4
			s1.5-0.8,2.2-1.7c0.7-1,1-1.8,0.9-2.6c-0.1-0.8-0.5-1.4-1.2-1.9c-0.7-0.5-1.4-0.7-2.2-0.5C93.6,225.7,92.8,226.3,92.2,227.3z"/>
		<path class="st1" d="M99,238.1l2.6-10.3l1.9,1l-1.9,7l5-5.4l2.2,1.2l-1.8,7.3l4.8-5.7l1.9,1l-7,8l-2-1l1.8-7.8l-5.4,5.9L99,238.1z
			"/>
		<path class="st1" d="M110.6,243.8l3.7-9.6l2,0.7l-3,8l4.9,1.9l-0.6,1.6L110.6,243.8z"/>
		<path class="st1" d="M119.4,247.1l2.7-10l7.4,2l-0.5,1.7l-5.4-1.5l-0.6,2.2l5,1.4l-0.5,1.7l-5-1.4l-0.7,2.7l5.6,1.5l-0.5,1.7
			L119.4,247.1z"/>
		<path class="st1" d="M131.1,239.4l3.8,0.6c0.9,0.1,1.5,0.3,1.9,0.5c0.6,0.3,1,0.7,1.4,1.2c0.4,0.5,0.6,1.1,0.7,1.8
			c0.1,0.7,0.1,1.5-0.1,2.5c-0.1,0.8-0.4,1.6-0.7,2.1c-0.4,0.7-0.8,1.2-1.4,1.6c-0.4,0.3-0.9,0.5-1.6,0.6c-0.5,0.1-1.1,0-1.9-0.1
			l-3.9-0.6L131.1,239.4z M132.8,241.5l-1.1,6.8l1.5,0.3c0.6,0.1,1,0.1,1.3,0.1c0.3,0,0.6-0.1,0.9-0.3c0.3-0.2,0.5-0.5,0.7-0.9
			c0.2-0.4,0.4-1,0.5-1.8c0.1-0.8,0.2-1.4,0.1-1.9c-0.1-0.4-0.2-0.8-0.4-1.1s-0.5-0.5-0.9-0.6c-0.3-0.1-0.8-0.2-1.7-0.4L132.8,241.5
			z"/>
		<path class="st1" d="M145.4,247.8l0.1-1.7l4.5,0.2l-0.2,4.1c-0.5,0.4-1.1,0.7-2,1c-0.8,0.3-1.7,0.4-2.5,0.4
			c-1.1-0.1-2-0.3-2.8-0.8c-0.8-0.5-1.4-1.2-1.7-2c-0.4-0.9-0.5-1.8-0.5-2.8c0.1-1.1,0.3-2,0.8-2.8c0.5-0.8,1.2-1.4,2.1-1.8
			c0.7-0.3,1.5-0.4,2.5-0.4c1.3,0.1,2.3,0.4,3,1c0.7,0.6,1.1,1.3,1.3,2.3l-2.1,0.3c-0.1-0.5-0.4-0.9-0.8-1.2
			c-0.4-0.3-0.9-0.5-1.5-0.5c-0.9,0-1.7,0.2-2.2,0.8c-0.6,0.6-0.9,1.4-0.9,2.5c-0.1,1.2,0.2,2.2,0.7,2.8c0.5,0.6,1.2,1,2.1,1
			c0.4,0,0.9,0,1.3-0.2c0.4-0.1,0.8-0.3,1.2-0.6l0.1-1.3L145.4,247.8z"/>
		<path class="st1" d="M152.3,251.7l-0.6-10.3l7.7-0.5l0.1,1.7l-5.6,0.3l0.1,2.3l5.2-0.3l0.1,1.7l-5.2,0.3l0.2,2.8l5.8-0.3l0.1,1.7
			L152.3,251.7z"/>
		<path class="st1" d="M166.6,250.3l-1.8-10.2l2.1-0.4l1.8,10.2L166.6,250.3z"/>
		<path class="st1" d="M169.7,246.4l1.9-0.7c0.3,0.6,0.6,1.1,1.1,1.3c0.4,0.2,1,0.3,1.6,0.1c0.7-0.2,1.1-0.4,1.4-0.8
			c0.3-0.4,0.3-0.7,0.3-1.1c-0.1-0.2-0.2-0.4-0.4-0.6c-0.2-0.1-0.5-0.2-0.8-0.3c-0.3,0-0.8,0-1.7,0c-1.2,0-2-0.1-2.5-0.4
			c-0.8-0.4-1.2-1-1.4-1.8c-0.1-0.5-0.1-1,0.1-1.5c0.2-0.5,0.5-1,1-1.3c0.5-0.4,1.1-0.7,1.9-0.8c1.3-0.3,2.3-0.3,3.1,0.1
			c0.8,0.4,1.3,1.1,1.6,2l-2,0.6c-0.2-0.5-0.5-0.8-0.8-1c-0.3-0.2-0.8-0.2-1.4,0c-0.6,0.1-1,0.4-1.3,0.7c-0.2,0.2-0.2,0.4-0.2,0.7
			c0.1,0.2,0.2,0.4,0.5,0.5c0.3,0.2,1,0.2,2,0.2c1,0,1.8,0,2.4,0.2c0.5,0.1,1,0.4,1.4,0.7c0.4,0.4,0.6,0.9,0.8,1.5
			c0.1,0.6,0.1,1.2-0.1,1.7c-0.2,0.6-0.6,1.1-1.1,1.5c-0.5,0.4-1.2,0.7-2.1,0.9c-1.3,0.3-2.3,0.3-3.1-0.2
			C170.7,248.3,170.1,247.5,169.7,246.4z"/>
		<path class="st1" d="M185,245.6l-3.9-9.6l3.1-1.3c1.2-0.5,2-0.7,2.4-0.8c0.6-0.1,1.2,0,1.8,0.4c0.6,0.3,1,0.9,1.3,1.6
			c0.2,0.6,0.3,1.1,0.3,1.6c0,0.5-0.2,0.9-0.4,1.3c-0.2,0.4-0.5,0.7-0.8,0.9c-0.4,0.3-1.1,0.6-2,1l-1.3,0.5l1.5,3.6L185,245.6z
			 M183.7,236.8l1.1,2.7l1.1-0.4c0.8-0.3,1.3-0.6,1.5-0.8c0.2-0.2,0.4-0.4,0.4-0.7c0.1-0.3,0-0.6-0.1-0.8c-0.1-0.3-0.4-0.6-0.7-0.7
			c-0.3-0.1-0.6-0.2-1-0.1c-0.2,0.1-0.7,0.2-1.4,0.5L183.7,236.8z"/>
		<path class="st1" d="M191.7,237.3c-0.5-0.9-0.8-1.8-0.9-2.6c0-0.6,0-1.1,0.2-1.7c0.2-0.6,0.4-1.1,0.7-1.5c0.4-0.5,1-1,1.8-1.4
			c1.3-0.7,2.6-0.9,3.9-0.5c1.3,0.4,2.3,1.3,3.1,2.8c0.8,1.5,1,2.8,0.7,4.1c-0.3,1.3-1.2,2.3-2.5,3c-1.4,0.7-2.7,0.9-3.9,0.5
			C193.5,239.6,192.5,238.7,191.7,237.3z M193.6,236.2c0.6,1,1.2,1.7,2,2c0.8,0.3,1.5,0.2,2.2-0.2c0.7-0.4,1.2-1,1.4-1.8
			c0.2-0.8,0-1.7-0.6-2.8c-0.6-1-1.2-1.7-2-2c-0.7-0.3-1.5-0.2-2.2,0.2c-0.8,0.4-1.2,1-1.4,1.8C192.8,234.2,193,235.1,193.6,236.2z"
			/>
		<path class="st1" d="M206.3,234.8l-8.1-6.9l1.7-1.3l5.5,4.8l-2.7-6.9l2-1.5l5.7,4.8l-3-6.8l1.7-1.2l4.1,9.9l-1.8,1.3l-6.2-5
			l2.9,7.5L206.3,234.8z"/>
		<path class="st1" d="M216.6,227l-7.1-7.6l5.6-5.2l1.2,1.3l-4.1,3.8l1.6,1.7l3.8-3.5l1.2,1.3l-3.8,3.5l1.9,2.1l4.2-3.9l1.2,1.3
			L216.6,227z"/>
		<path class="st1" d="M224,219.8l-7.8-6.8l2.9-3.3c0.7-0.8,1.3-1.4,1.8-1.6c0.5-0.3,1-0.3,1.5-0.3c0.6,0.1,1.1,0.3,1.5,0.7
			c0.6,0.5,0.9,1.1,1,1.8c0.1,0.7-0.1,1.4-0.6,2.2c0.5-0.2,1-0.3,1.4-0.3c0.4,0,1.1,0.1,2.1,0.2l2.4,0.4l-1.6,1.9l-2.7-0.3
			c-1-0.1-1.6-0.2-1.9-0.2c-0.3,0-0.5,0.1-0.7,0.2c-0.2,0.1-0.5,0.4-0.8,0.7l-0.3,0.3l3.3,2.8L224,219.8z M220.9,214.3l1-1.2
			c0.7-0.8,1-1.3,1.1-1.5c0.1-0.2,0.1-0.5,0.1-0.7c-0.1-0.2-0.2-0.5-0.4-0.7c-0.3-0.2-0.5-0.3-0.8-0.3c-0.3,0-0.6,0.1-0.8,0.3
			c-0.1,0.1-0.5,0.5-1,1.1l-1.1,1.2L220.9,214.3z"/>
	</g>
</g>
</svg>
